<svg class="w-6 h-6" xmlns="http://www.w3.org/2000/svg" viewBox="0 0 180 180"><g><circle cx="68.54" cy="155.45" r="19.68"></circle><circle cx="22.96" cy="99.04" r="22.96"></circle><circle cx="79.69" cy="24.6" r="24.6"></circle><circle cx="154.47" cy="103.31" r="26.24"></circle><rect x="207.73" y="305.97" width="11.15" height="91.16" transform="translate(-287.65 -41.26) rotate(-44.62)"></rect><polygon points="139.65 107.25 139.65 96.1 84.36 96.48 83.35 107.25 139.65 107.25"></polygon><polygon points="59.09 155.13 68.34 148.9 28.54 95.77 19.28 102 59.09 155.13"></polygon><polygon points="20.7 94.95 29.67 101.57 81.66 27.15 72.69 20.52 20.7 94.95"></polygon><polygon points="62.94 154.29 73.95 156.04 83.95 30.52 72.94 28.77 62.94 154.29"></polygon><polygon points="60.87 106.96 62.05 95.51 25.22 95.51 25.22 106.66 60.87 106.96"></polygon></g></svg>